HIERARCHY
ROOT Hips
{
     OFFSET 1.88212 96.90440 -13.34250
     CHANNELS 6 Xposition Yposition Zposition Zrotation Xrotation Yrotation
     JOINT Spine
     {
          OFFSET 0.00000 11.89050 0.00000
          CHANNELS 3 Zrotation Xrotation Yrotation
          JOINT Spine1
          {
               OFFSET -0.00000 25.65740 0.12766
               CHANNELS 3 Zrotation Xrotation Yrotation
               JOINT HEad
               {
                    OFFSET 0.00000 8.73416 0.01134
                    CHANNELS 3 Zrotation Xrotation Yrotation
                    End Site
                    {
                         OFFSET -0.29000 12.77420 2.51395
                    }
               }
               JOINT LeftShoulder1
               {
                    OFFSET 8.99000 -0.36225 -0.22000
                    CHANNELS 3 Zrotation Xrotation Yrotation
                    JOINT LeftArm
                    {
                         OFFSET 10.28270 -0.00338 0.32212
                         CHANNELS 3 Zrotation Xrotation Yrotation
                         JOINT LeftForeArm
                         {
                              OFFSET 32.76690 0.09914 -1.42434
                              CHANNELS 3 Zrotation Xrotation Yrotation
                              JOINT LeftHand
                              {
                                   OFFSET 27.56430 0.08536 1.02216
                                   CHANNELS 3 Zrotation Xrotation Yrotation
                                   End Site
                                   {
                                        OFFSET 16.74430 -0.60000 1.50291
                                   }
                              }
                         }
                    }
               }
               JOINT RightShoulder
               {
                    OFFSET -8.99000 -0.36225 -0.22000
                    CHANNELS 3 Zrotation Xrotation Yrotation
                    JOINT RightArm
                    {
                         OFFSET -10.28270 -0.00338 0.32212
                         CHANNELS 3 Zrotation Xrotation Yrotation
                         JOINT RightForeArm
                         {
                              OFFSET -32.89710 0.09914 -1.42434
                              CHANNELS 3 Zrotation Xrotation Yrotation
                              JOINT RightHand
                              {
                                   OFFSET -27.49210 0.08536 1.02216
                                   CHANNELS 3 Zrotation Xrotation Yrotation
                                   End Site
                                   {
                                        OFFSET -16.63120 -0.60000 1.50291
                                   }
                              }
                         }
                    }
               }
          }
     }
     JOINT LeftUpLeg
     {
          OFFSET 8.94580 -8.66707 0.10165
          CHANNELS 3 Zrotation Xrotation Yrotation
          JOINT LeftLeg
          {
               OFFSET 0.00000 -44.42270 1.37270
               CHANNELS 3 Zrotation Xrotation Yrotation
               JOINT LeftFoot
               {
                    OFFSET -0.25355 -42.09240 -1.46059
                    CHANNELS 3 Zrotation Xrotation Yrotation
                    JOINT LeftToes
                    {
                         OFFSET -0.04000 -4.41509 8.49910
                         CHANNELS 3 Zrotation Xrotation Yrotation
                         End Site
                         {
                              OFFSET 0.08000 -0.04745 9.77979
                         }
                    }
               }
          }
     }
     JOINT RightUpLeg
     {
          OFFSET -8.94580 -8.66707 0.10165
          CHANNELS 3 Zrotation Xrotation Yrotation
          JOINT RightLeg
          {
               OFFSET 0.00000 -44.42270 1.37270
               CHANNELS 3 Zrotation Xrotation Yrotation
               JOINT RightFoot
               {
                    OFFSET 0.25355 -42.09240 -1.46059
                    CHANNELS 3 Zrotation Xrotation Yrotation
                    JOINT RightToes
                    {
                         OFFSET 0.04000 -4.41509 8.49910
                         CHANNELS 3 Zrotation Xrotation Yrotation
                         End Site
                         {
                              OFFSET -0.08000 -0.13745 9.77979
                         }
                    }
               }
          }
     }
}
MOTION
Frames: 7
Frame Time: 0.01667
-1038.23047 84.65012 845.22803 3.66295 -0.40160 91.28732 5.72281 14.42310 2.54852 0.00102 0.00090 -0.00121 -43.73840 21.65630 46.81520 0.42352 1.60277 1.54120 -175.26846 -85.92066 -151.51201 -46.76138 52.66937 -95.06235 5.76569 9.53177 -1.49823 20.03641 4.17983 8.64110 51.21265 -8.79423 69.72324 19.73927 35.57500 95.35177 -5.20081 10.38079 0.98977 17.21583 -29.92409 19.16290 2.51534 35.97649 -8.32454 83.13400 0.00785 0.01533 -86.36611 -2.38649 -3.21468 -13.72186 -1.09008 0.28117 1.68175 46.42289 12.57935 61.02499 0.03167 -0.00941 -36.86557 -16.49277 19.11645 
-1038.01062 85.10607 845.40222 3.55346 -0.50536 91.21759 5.21219 13.87045 2.87466 0.00268 0.00047 -0.00167 -44.11813 21.83765 47.25779 0.67623 1.66568 1.38284 -175.70511 -85.29889 -151.98384 -46.92240 52.75186 -94.64333 5.68423 9.42818 -1.51340 20.09414 4.16782 8.39122 51.15495 -8.92247 70.21258 19.88923 35.45678 95.04666 -5.60294 10.21699 1.14097 17.17417 -28.88432 19.50834 2.51184 34.18931 -9.51835 81.14501 0.00820 0.01661 -84.45815 -2.13550 -2.06099 -13.78062 -0.83528 0.30526 2.50392 45.54875 12.75740 57.31972 0.02852 -0.00657 -35.67387 -18.30611 15.95900 
-1037.80139 85.50152 845.57257 3.52273 -0.57740 91.17476 4.71753 13.33896 3.14363 0.00357 -0.00041 -0.00141 -44.28753 22.00640 47.60547 0.92393 1.69239 1.31723 -173.52118 -84.79861 -149.78323 -47.00678 52.85413 -94.32935 5.53788 9.26299 -1.51138 20.40675 4.18810 8.25187 51.02246 -9.10023 70.51495 20.02517 35.37586 94.85622 -5.95393 10.03532 1.21193 17.04918 -27.90861 19.68266 2.59809 32.52723 -10.57308 79.00307 0.00811 0.01690 -82.39687 -1.70406 -1.18904 -13.88915 -0.59041 0.31523 3.27641 44.83615 12.75837 53.62087 0.02361 0.00065 -43.06804 -29.37289 -0.66625 
-1037.61096 85.81485 845.75769 3.56956 -0.61641 91.17596 4.24989 12.83970 3.35016 0.00454 0.00039 -0.00079 -44.26103 22.15311 47.84539 1.16088 1.79469 1.31895 -169.55502 -84.30736 -145.72314 -47.00456 52.98074 -94.12469 5.45776 9.12933 -1.41159 20.81145 4.30699 8.13412 50.95681 -9.31578 70.72943 20.14475 35.33935 94.78533 -6.22322 9.84436 1.22413 16.87028 -27.01687 19.71011 2.74555 31.03617 -11.49872 76.74314 0.00741 0.01683 -80.30072 -1.31765 -0.29353 -14.02747 -0.33322 0.32103 4.03118 44.21780 12.50914 49.95855 0.01739 0.00849 -23.98978 -16.43959 -4.09873 
-1037.45923 86.00964 845.97339 3.67736 -0.61496 91.22570 3.79379 12.38463 3.50275 0.00470 0.00217 -0.00006 -44.04664 22.28518 47.96039 1.28794 2.01637 1.34961 -164.66232 -83.74981 -140.71945 -46.91958 53.15310 -93.98798 5.39042 8.94915 -1.19680 21.13613 4.54398 8.00333 51.10593 -9.55125 70.91244 20.25201 35.38287 94.80289 -6.32298 9.59562 1.15329 16.66954 -26.24755 19.63364 2.93190 29.75997 -12.30230 74.39091 0.00629 0.01591 -78.33728 -1.27127 0.32203 -14.19558 -0.06546 0.34203 4.78682 43.65383 12.07115 46.34946 0.01155 0.01271 -28.83154 -22.24689 -5.12601 
-1037.33411 86.17323 846.20679 3.83124 -0.57254 91.32285 3.35799 11.97693 3.61320 0.00524 0.00321 0.00083 -43.68760 22.44850 47.94394 1.42481 2.27525 1.43457 -159.04066 -83.18523 -134.90501 -46.68656 53.27588 -93.97076 5.36855 9.13440 -1.06817 21.36621 4.82594 7.95128 51.43312 -9.82639 70.95973 20.35957 35.49415 94.91022 -6.45376 9.36957 1.17815 16.45446 -25.59815 19.48316 3.14770 28.69761 -12.99517 71.97518 0.00499 0.01445 -76.35792 -1.19909 0.94319 -14.37596 0.22848 0.37951 5.55190 43.13561 11.42464 42.73671 0.00704 0.01599 -29.94384 -37.34753 -13.76246 
-1037.25366 86.25609 846.47278 4.01550 -0.49077 91.46194 2.93957 11.61851 3.69514 0.00508 0.00409 0.00145 -43.19097 22.61566 47.80205 1.49537 2.55272 1.54307 -153.08513 -82.62041 -128.75777 -46.30737 53.37154 -94.09755 5.25927 9.06347 -0.89577 21.49253 5.11468 7.88599 51.90951 -10.03506 70.94611 20.46637 35.67629 95.04499 -6.35872 9.19365 1.04614 16.24288 -25.07797 19.27252 3.36943 27.85561 -13.57176 69.51693 0.00372 0.01253 -74.40501 -1.37060 1.46327 -14.55661 0.55004 0.44263 6.33194 42.65783 10.53102 39.12052 0.00088 0.01952 -44.92090 -38.60368 -16.37016 
